# xmcd CD database file
#
# Track frame offsets:
#        179
#        11294
#        23993
#        36540
#        45626
#        55670
#        69364
#        80317
#        89652
#        98073
#        111516
#        120485
#
# Disc length: 1738 seconds
#
# Revision: 0
# Processed by: cddbd v1.5.2PL0 Copyright (c) Steve Scherf et al.
# Submitted via: CUERipper 2.1.4
#
DISCID=9506c80c
DTITLE=Johnny Cash - Complete Columbia Album Collection, Disc 6 [Hymns From The Heart]
DYEAR=1962
DGENRE=
TTITLE0=He'll Understand and Say Well Done
TTITLE1=God Must Have My Fortune Laid Away
TTITLE2=When I've Learned
TTITLE3=I Got Shoes
TTITLE4=Let the Lower Lights Be Burning
TTITLE5=If We Never Meet Again
TTITLE6=When I Take My Vacation in Heaven
TTITLE7=When He Reached Down His Hand for Me
TTITLE8=Taller Than Trees
TTITLE9=I Won't Have to Cross Jordan Alone
TTITLE10=My God Is Real (Yes, God Is Real)
TTITLE11=These Hands
EXTD=
EXTT0=
EXTT1=
EXTT2=
EXTT3=
EXTT4=
EXTT5=
EXTT6=
EXTT7=
EXTT8=
EXTT9=
EXTT10=
EXTT11=
PLAYORDER=
